<?xml version="1.0" encoding="UTF-8"?>
<svg xmlns="http://www.w3.org/2000/svg" width="62" height="62" viewBox="0 0 62 62" fill="none">
    <path
        d="M55.4943 27.5502C51.9951 24.051 48.0031 21.1925 43.7153 19.0732C46.3274 24.1003 47.6581 29.6694 47.6581 35.3864C47.6581 40.2656 46.6724 45.0955 44.7503 49.5311C50.5166 43.7155 54.5579 36.4707 56.4308 28.4866C56.0858 28.1416 55.7901 27.8459 55.4943 27.5502Z"
        fill="currentColor"></path>
    <path
        d="M39.7725 17.8904C27.4514 17.8904 16.2638 24.5931 10.3989 35.4357C16.2638 46.2783 27.4514 52.9317 39.7725 52.9317C40.0682 52.9317 40.3639 52.9317 40.6597 52.9317C43.8632 47.6583 45.5881 41.6455 45.5881 35.4357C45.5881 29.2258 43.9124 23.1638 40.6597 17.9397C40.3639 17.8904 40.0682 17.8904 39.7725 17.8904Z"
        fill="currentColor"></path>
    <path
        d="M0 51.3051C0 51.9458 0 52.5865 0.0492846 53.2272C6.30843 57.17 13.2576 59.7821 20.4531 61.1128C13.6518 53.9666 9.41335 44.9967 8.13196 35.534L8.08267 35.4356L8.13196 35.3862C7.49126 30.7041 7.58983 25.8744 8.47695 21.0938C3.00636 29.9649 0 40.3639 0 51.3051Z"
        fill="currentColor"></path>
    <path
        d="M23.6566 61.3594C28.8807 60.1273 33.8092 57.9587 38.1955 54.9524C27.4022 54.4595 17.5946 49.1368 11.2861 40.5613C13.2575 47.954 17.1017 54.8045 22.7202 60.423C23.0159 60.7187 23.3116 61.0637 23.6566 61.3594Z"
        fill="currentColor"></path>
    <path
        d="M30.655 0C24.0509 3.54849 18.3339 8.23052 13.6519 13.7504C23.0652 11.4833 32.8236 12.3211 41.5469 15.8203H41.7934L41.8919 15.9682C46.3768 17.841 50.566 20.4038 54.3609 23.6566C49.0875 13.7997 40.9062 5.51987 30.655 0Z"
        fill="currentColor"></path>
    <path
        d="M61.2609 53.2273C61.2609 52.5866 61.3101 51.9459 61.3101 51.3052C61.3101 44.3561 60.078 37.6041 57.8109 31.345C55.6424 38.7869 51.6504 45.5389 46.1305 51.0588C44.7998 52.3895 43.4198 53.6216 41.9413 54.8044L41.8427 54.9523H41.7442C37.8507 57.9586 33.5136 60.3243 28.9302 61.9507C29.5216 61.9507 30.113 62 30.7044 62C41.4977 62 52.0939 58.9443 61.2609 53.2273Z"
        fill="currentColor"></path>
    <path
        d="M9.85689 32.232C15.6232 23.1636 25.0365 17.2495 35.6327 16.0174C27.895 13.9474 19.6152 13.9967 11.6311 16.4117C10.054 21.6851 9.51189 27.0078 9.85689 32.232Z"
        fill="currentColor"></path>
</svg>